<svg xmlns="http://www.w3.org/2000/svg" viewBox="0 0 1200 1200" width="1200" height="1200" role="img" aria-labelledby="art-title art-description" data-engine="MARQUEE" data-state="active" data-media="generated" data-geometry="0xf5eaba847975b716c33c052d8c08c2ecb5b2899eadcd8824fe6a0ddae04f8432"><title id="art-title">Creator Backers membership #42</title><desc id="art-description">Independent creator membership</desc><defs><style><![CDATA[svg{--bg:#120b0a;--paper:#f4e6c8;--hot:#ff6047;--blue:#4d7cfe;--gold:#f6b73c;font-family:Arial,Helvetica,sans-serif}.art-bg{fill:var(--bg)}svg[data-state='afterglow']{--paper:#f6b73c;--hot:#f4e6c8;--blue:#ff6047;--gold:#4d7cfe}.stack-plane{stroke:var(--bg);stroke-width:10}.plane-0{fill:var(--blue)}.plane-1{fill:var(--hot)}.plane-2{fill:var(--gold)}.plane-3{fill:var(--paper)}.plane-4{fill:var(--bg);stroke:var(--paper)}.supporter-slab{fill:var(--paper)}.supporter-slab:nth-child(3n+2){fill:var(--hot)}.supporter-slab:nth-child(3n){fill:var(--gold)}.aperture-ground{fill:var(--bg)}.aperture-line{fill:none;stroke:var(--paper);stroke-width:18}.aperture-frame{fill:none;stroke:var(--bg);stroke-width:9;vector-effect:non-scaling-stroke}.media-wash{fill:var(--hot);opacity:.23;mix-blend-mode:multiply}svg[data-media='native'] .generated-aperture{opacity:.18}.aperture-sigil-a{fill:var(--blue)}.aperture-sigil-b{fill:var(--hot)}.aperture-sigil-c{fill:var(--gold)}.registration-ring{fill:none;stroke:var(--paper);stroke-width:5}.registration-ring circle{stroke-dasharray:22 12}.editorial{pointer-events:none}.eyebrow,.state-copy,.token-number{fill:var(--paper);font-weight:800;letter-spacing:3px;paint-order:stroke;stroke:var(--bg);stroke-width:4px;stroke-linejoin:round}.eyebrow,.state-copy{font-size:22px}.token-number{font-size:32px}.tier-name{fill:var(--paper);paint-order:stroke;stroke:var(--bg);stroke-width:9px;stroke-linejoin:round;font-size:78px;font-family:Arial,Helvetica,sans-serif;font-weight:900;letter-spacing:-2px}.state-afterglow{display:none}svg[data-state='afterglow'] .state-active{display:none}svg[data-state='afterglow'] .state-afterglow{display:block}.grain{fill:url(#print-grain);pointer-events:none;mix-blend-mode:screen}]]></style><pattern id="print-grain" width="19" height="19" patternUnits="userSpaceOnUse"><circle cx="0" cy="3" r="1" fill="#fff" opacity="0.10"/></pattern><style><![CDATA[.marquee-panel{stroke:var(--bg);stroke-width:12}.marquee-panel-a{fill:var(--blue)}.marquee-panel-b{fill:var(--hot)}.marquee-panel-c{fill:var(--gold)}.marquee-panel-d{fill:var(--paper)}.marquee-word{fill:var(--paper);font-weight:900;letter-spacing:-10px}.marquee-word-dark{fill:var(--bg)}.marquee-ghost{fill:none;stroke:var(--hot);stroke-width:5;opacity:.48}.marquee-crop{stroke:var(--paper);stroke-width:7}.marquee-stripe{fill:none;stroke:var(--paper);stroke-width:8;stroke-dasharray:46 24}.marquee-star{transform-box:fill-box;transform-origin:center;fill:var(--gold)}svg[data-state='afterglow'] .marquee-panel{stroke:var(--paper)}svg[data-state='afterglow'] .marquee-ghost{stroke:var(--gold);opacity:.58}svg[data-media='native'] .marquee-generated{opacity:.16}]]></style><clipPath id="engine-media-clip"><polygon points="113,224 1039,102 1013,344 93,358"/><polygon points="153,348 1055,251 1029,468 133,482"/><polygon points="186,489 1004,369 978,609 166,623"/></clipPath></defs><rect class="art-bg" width="1200" height="1200"/><g class="marquee-panels"><polygon class="marquee-panel marquee-panel-a" points="69,204 1083,82 1033,336 45,370"/><polygon class="marquee-panel marquee-panel-b" points="109,328 1099,231 1049,460 85,494"/><polygon class="marquee-panel marquee-panel-c" points="142,469 1048,349 998,601 118,635"/></g><g class="marquee-generated"><text class="marquee-ghost" x="138" y="390" font-size="210">BACKED</text><text class="marquee-word" x="124" y="390" font-size="210">BACKED</text><text class="marquee-ghost" x="326" y="568" font-size="188">BY</text><text class="marquee-word marquee-word-dark" x="312" y="568" font-size="188">BY</text><text class="marquee-ghost" x="130" y="770" font-size="238">FANS</text><text class="marquee-word" x="116" y="770" font-size="238">FANS</text><path class="marquee-stripe" d="M70 846L1120 781"/><path class="marquee-crop" d="M72 128v70M72 128h70M1128 128v70M1128 128h-70M72 884v-70M72 884h70M1128 884v-70M1128 884h-70"/><path class="marquee-star" d="M1020 735l18 48 50 2-39 31 14 49-43-28-43 28 14-49-39-31 50-2z"/></g><rect class="grain" width="1200" height="1200"/><g class="editorial"><text class="eyebrow" x="112" y="92">BACKED BY FANS  /  ONCHAIN MEMBERSHIP</text><text class="tier-name" x="112" y="1030" textLength="860" lengthAdjust="spacingAndGlyphs">Creator Backers</text><text class="token-number" x="1090" y="1110" text-anchor="end">NO. 42</text><text class="state-copy state-active" x="1088" y="92" text-anchor="end">ACTIVE</text><text class="state-copy state-afterglow" x="1088" y="92" text-anchor="end">EXPIRED</text></g></svg>